<svg id="Layer_1" data-name="Layer 1" xmlns="http://www.w3.org/2000/svg" viewBox="0 0 715.83 537.33"><defs><style>.cls-1,.cls-2{fill:none;stroke:#fff;stroke-linecap:round;stroke-width:10.78px;}.cls-1{stroke-linejoin:round;}.cls-2{stroke-miterlimit:10;}</style></defs><line class="cls-1" x1="696.6" y1="355.42" x2="461.33" y2="496.97"/><line class="cls-1" x1="459.67" y1="497.91" x2="223.14" y2="348.25"/><line class="cls-1" x1="263.95" y1="150.14" x2="647.75" y2="382.92"/><line class="cls-1" x1="19.23" y1="353.51" x2="258.4" y2="500.19"/><line class="cls-1" x1="501.03" y1="167.42" x2="263.46" y2="39.42"/><line class="cls-1" x1="501.03" y1="167.42" x2="96.51" y2="70.55"/><line class="cls-1" x1="96.51" y1="70.55" x2="19.23" y2="353.51"/><line class="cls-2" x1="223.14" y1="348.25" x2="585.32" y2="480.48"/><line class="cls-1" x1="263.95" y1="150.14" x2="696.6" y2="355.42"/><line class="cls-1" x1="113.14" y1="485.66" x2="501.03" y2="351.09"/><line class="cls-1" x1="20.03" y1="177.26" x2="113.14" y2="485.66"/><line class="cls-1" x1="339.08" y1="42.27" x2="681.4" y2="162.44"/><line class="cls-1" x1="263.46" y1="39.42" x2="20.03" y2="177.26"/><line class="cls-1" x1="258.4" y1="500.19" x2="501.03" y2="351.09"/><line class="cls-1" x1="681.4" y1="162.44" x2="464.73" y2="37.14"/><line class="cls-1" x1="464.73" y1="37.14" x2="263.95" y2="150.14"/></svg>